<svg width="380" height="213" version="1.1" xmlns="http://www.w3.org/2000/svg" desc="Created with imagetracer.js version 1.2.6" ><path fill="rgb(165,164,134)" stroke="rgb(165,164,134)" stroke-width="1" opacity="1" d="M 97 86 L 116 86 L 116 105 L 97 105 L 97 86 Z " /><path fill="rgb(165,164,134)" stroke="rgb(165,164,134)" stroke-width="1" opacity="1" d="M 118 86 L 137 86 L 137 105 L 134.5 106 L 119.5 106 L 118 104.5 L 118 86 Z " /><path fill="rgb(165,164,134)" stroke="rgb(165,164,134)" stroke-width="1" opacity="1" d="M 268.5 92 Q 275.3 90 273 96 L 269 97.5 L 269 101 L 274 101 L 274 97 L 275.5 97 L 279 96 L 279 101 Q 284.2 98.9 283 103.5 L 279 105.5 L 279 113.5 L 280.5 115 Q 284.7 113.9 283 118 L 279.5 119 L 275 116.5 L 274 114.5 L 274 104 L 271.5 105 L 269 104 L 269 118 L 264 118 L 263.5 104 L 262 104.5 L 262 101.5 Q 265 102.5 264 97.5 L 268.5 92 Z " /><path fill="rgb(165,164,134)" stroke="rgb(165,164,134)" stroke-width="1" opacity="1" d="M 179.5 93 L 183 95.5 L 180.5 99 L 178 97.5 Q 177.3 93.8 179.5 93 Z " /><path fill="rgb(165,164,134)" stroke="rgb(165,164,134)" stroke-width="1" opacity="1" d="M 149.5 94 Q 155.6 92.8 155 95.5 L 161.5 111 L 168 94 L 174.5 94 L 175 94.5 L 175 118 L 170 117.5 L 170 102.5 L 169 102.5 L 163 118 Q 157.8 120.1 159 115.5 L 152.5 101 L 152 102.5 L 153 103.5 L 153 118 L 148 117.5 L 148 95.5 L 149.5 94 Z " /><path fill="rgb(165,164,134)" stroke="rgb(165,164,134)" stroke-width="1" opacity="1" d="M 192.5 100 L 198 101 L 198 105 L 196.5 105 L 193.5 104 L 190 106.5 L 189 110.5 L 192.5 115 L 198 114 Q 200.2 119.6 194.5 118 L 192.5 119 L 185 113.5 Q 183.4 103.4 189.5 101 L 192.5 100 Z " /><path fill="rgb(165,164,134)" stroke="rgb(165,164,134)" stroke-width="1" opacity="1" d="M 209.5 100 L 212 101.5 L 212.5 104 Q 214.7 99.7 221.5 100 L 228 104.5 L 229 112.5 L 224.5 118 L 219.5 119 L 215.5 118 L 212 114.5 L 211 106.5 L 211.5 105 Q 207 104 206 106.5 L 206 118 L 201 118 L 201 101.5 Q 201 100.5 205.5 101 L 207.5 101 L 209.5 100 Z M 220 104 L 218 105 Q 215 107 216 113 Q 217 116 222 115 L 225 110 L 224 107 Q 224 104 220 104 Z " /><path fill="rgb(165,164,134)" stroke="rgb(165,164,134)" stroke-width="1" opacity="1" d="M 235.5 100 Q 240.6 99.4 242 102.5 L 240.5 105 L 236.5 104 L 235 107 L 242 110.5 Q 243.3 116.8 239.5 118 L 234.5 119 L 230 116.5 Q 228.8 112.8 232.5 114 L 236.5 115 Q 240 113 235.5 111 L 231 108.5 Q 229.8 102.3 233.5 101 L 235.5 100 Z " /><path fill="rgb(165,164,134)" stroke="rgb(165,164,134)" stroke-width="1" opacity="1" d="M 251.5 100 Q 257.9 99.6 260 103.5 Q 262.3 106.7 261 113.5 L 258.5 117 L 252.5 119 L 245 115.5 L 243 109.5 L 246.5 102 L 251.5 100 Z M 252 104 L 248 109 L 249 114 L 252 115 L 257 113 Q 258 107 256 105 L 252 104 Z " /><path fill="rgb(165,164,134)" stroke="rgb(165,164,134)" stroke-width="1" opacity="1" d="M 178 101 L 182 101.5 L 182 118 L 178 117.5 L 178 101 Z " /><path fill="rgb(165,164,134)" stroke="rgb(165,164,134)" stroke-width="1" opacity="1" d="M 97 107 L 116 107 L 116 126 L 97 126 L 97 107 Z " /><path fill="rgb(165,164,134)" stroke="rgb(165,164,134)" stroke-width="1" opacity="1" d="M 118 107 L 137 107 L 137 126 L 118 126 L 118 107 Z " /><path fill="rgb(254,254,254)" stroke="rgb(254,254,254)" stroke-width="1" opacity="1" d="M 112.5 82 L 116 82.5 L 112.5 83 L 112.5 82 Z " /><path fill="rgb(254,254,254)" stroke="rgb(254,254,254)" stroke-width="1" opacity="1" d="M 95 85 L 137.5 85 L 141 87.5 L 139 87.5 L 139 105.5 L 140.5 106 L 140.5 107 L 137.5 106 L 139 108.5 L 139 127.5 L 137.5 128 L 136.5 127 L 121.5 127 L 119.5 128 L 117 127 L 117 108.5 L 115.5 107 L 97 107 L 97 126 L 116 126.5 L 97.5 127 L 96.5 128 L 96 125.5 L 96 107.5 L 97 106.5 L 95 106 L 95 85 Z M 97 86 L 97 105 L 116 105 L 116 86 L 97 86 Z M 118 86 L 118 105 L 120 106 L 135 106 L 137 105 L 137 86 L 118 86 Z M 118 107 L 118 126 L 137 126 L 137 107 L 118 107 Z " /><path fill="rgb(254,254,254)" stroke="rgb(254,254,254)" stroke-width="1" opacity="1" d="M 162.5 88 L 163 90.5 L 162 90.5 L 162.5 88 Z " /><path fill="rgb(254,254,254)" stroke="rgb(254,254,254)" stroke-width="1" opacity="1" d="M 149.5 92 L 157 93 L 158 95.5 L 157 98 L 159 98.5 L 159 100.5 L 161.5 107 L 164.5 102 L 165 103.5 L 161.5 111 L 155 94 L 148.5 95 L 148 93.5 L 149.5 92 Z " /><path fill="rgb(254,254,254)" stroke="rgb(254,254,254)" stroke-width="1" opacity="1" d="M 160 92 Q 162.7 90.9 162 93.5 L 160 94.5 L 160 92 Z " /><path fill="rgb(254,254,254)" stroke="rgb(254,254,254)" stroke-width="1" opacity="1" d="M 172.5 92 L 174.5 93 L 177.5 92 Q 180.3 93.3 178 94.5 Q 177.3 98.3 179.5 99 L 182.5 97 L 182 98.5 L 184.5 105 L 186.5 102 L 192.5 99 L 210.5 99 L 214.5 101 L 217.5 100 L 217.5 101 Q 213 100.5 212.5 104 L 212 102.5 L 212.5 101 L 209.5 100 L 206.5 102 L 201 101 L 201 117.5 Q 201 118.5 205.5 118 L 206.5 120 L 203.5 119 Q 202 121.5 200.5 118 L 198.5 120 L 190.5 120 L 189.5 119 Q 188 121.5 182.5 120 L 179.5 119 Q 178.2 121.3 177 118.5 L 177 100.5 L 178.5 100 L 178.5 99 Q 175.1 99.9 177 94.5 L 177.5 93 L 168 94 L 165.5 101 L 165 98.5 L 167.5 93 L 172.5 92 Z M 193 100 L 190 101 Q 183 103 185 114 L 193 119 L 198 118 Q 199 114 197 113 L 196 115 L 195 114 L 193 115 L 189 111 L 190 107 L 194 104 L 197 105 L 198 105 L 198 101 L 193 100 Z M 178 101 L 178 118 L 182 118 L 182 102 L 178 101 Z M 196 105 L 195 106 Q 190 105 191 108 L 200 107 L 196 105 Z M 191 108 Q 189 111 192 112 L 200 112 L 200 109 L 191 110 L 191 108 Z " /><path fill="rgb(254,254,254)" stroke="rgb(254,254,254)" stroke-width="1" opacity="1" d="M 180.5 92 L 183.5 94 L 183.5 95 L 180.5 92 Z " /><path fill="rgb(254,254,254)" stroke="rgb(254,254,254)" stroke-width="1" opacity="1" d="M 267.5 92 L 265 95.5 L 264.5 97 L 264 93 L 267.5 92 Z " /><path fill="rgb(254,254,254)" stroke="rgb(254,254,254)" stroke-width="1" opacity="1" d="M 273.5 92 L 274 96 L 279.5 95 L 281 97.5 Q 278.8 98.7 281.5 100 L 286.5 99 L 286.5 100 L 284 100.5 L 285 104 L 287.5 103 L 288 108 L 283.5 107 L 282 107.5 Q 281.3 105.3 283.5 106 L 283.5 105 L 282 104.5 L 283 101 L 279 101 L 279 96 L 276.5 96 L 272.5 98 L 270 97 Q 268.3 101.5 273.5 100 L 273.5 101 Q 267.2 103.2 269 97.5 L 273 96 L 273.5 92 Z " /><path fill="rgb(254,254,254)" stroke="rgb(254,254,254)" stroke-width="1" opacity="1" d="M 276.5 93 L 280 93.5 L 276.5 94 L 276.5 93 Z " /><path fill="rgb(254,254,254)" stroke="rgb(254,254,254)" stroke-width="1" opacity="1" d="M 147.5 96 L 148 118 L 153 118 L 153 103.5 L 152 101.5 L 154 102.5 L 155 105.5 L 154.5 107 Q 156.8 106.3 156 108.5 L 154 108.5 Q 152.5 116 155 119.5 L 152.5 120 L 148.5 119 L 147 119.5 L 147.5 96 Z " /><path fill="rgb(254,254,254)" stroke="rgb(254,254,254)" stroke-width="1" opacity="1" d="M 240 96 Q 245.6 93.8 244 99.5 L 244.5 101 L 242 100 L 241.5 102 L 236 99.5 L 240 99 L 240 96 Z " /><path fill="rgb(254,254,254)" stroke="rgb(254,254,254)" stroke-width="1" opacity="1" d="M 221.5 98 L 225 99.5 Q 224.1 102.5 228.5 101 Q 230.3 104.8 232 101.5 Q 231.2 98.9 234.5 100 L 234.5 101 L 231 103.5 L 230 110.5 L 231.5 110 Q 235.3 109 234 112 L 231.5 111 L 229 112 L 230 103.5 L 227.5 102 L 229 104.5 L 228.5 106 L 224.5 101 L 219 99.5 L 221.5 98 Z " /><path fill="rgb(254,254,254)" stroke="rgb(254,254,254)" stroke-width="1" opacity="1" d="M 256.5 98 Q 262.8 96.8 264 100.5 L 262 101 L 262.5 105 L 264 104.5 L 263.5 116 L 263 114 L 261 114.5 L 261.5 116 L 259 117.5 L 260 119.5 L 259 119.5 L 258.5 118 Q 255.9 121.4 248.5 120 L 246.5 120 L 243 119.5 L 247 118.5 L 245 118 L 244.5 116 L 241 117.5 L 241.5 119 L 239.5 119 L 233.5 120 L 231.5 119 Q 230.2 121.3 229 118.5 L 227.5 116 L 227 118 Q 223.9 117.3 224.5 120 L 216.5 120 L 214 119.5 L 214.5 118 L 212 116.5 L 210 113.5 L 212 113 L 215.5 118 L 220.5 119 L 224.5 118 L 228 114.5 Q 227.4 111.8 233.5 113 L 234.5 115 L 230.5 114 L 228 115.5 L 235.5 119 L 239.5 118 L 242 115.5 Q 243.3 110.3 240.5 109 L 235 107 L 236.5 104 L 236.5 106 L 240 107 L 241.5 104 L 243 104.5 Q 242.3 102.3 244.5 103 L 246 100 L 256.5 98 Z M 252 100 L 247 102 Q 243 104 244 109 L 242 110 L 244 110 L 245 116 L 253 119 L 259 117 L 260 115 L 263 113 L 263 108 L 262 112 L 260 104 Q 258 100 252 100 Z M 259 100 Q 259 104 261 101 L 259 100 Z M 242 106 L 241 108 L 243 107 L 242 106 Z " /><path fill="rgb(254,254,254)" stroke="rgb(254,254,254)" stroke-width="1" opacity="1" d="M 169.5 102 L 170 118 L 175 118.5 L 173.5 120 L 170.5 119 L 169 118.5 L 169 109 L 167 109 L 165 114.5 L 166 118.5 L 163.5 119 L 159 118.5 L 163 118 L 169.5 102 Z " /><path fill="rgb(254,254,254)" stroke="rgb(254,254,254)" stroke-width="1" opacity="1" d="M 219 104 Q 222.8 103.3 224 106.5 L 225 109.5 L 221.5 115 Q 216.8 115.8 216 112.5 Q 214.5 106.5 217.5 105 L 217 106.5 Q 216.1 109.5 220.5 108 L 220 109.5 L 220.5 114 L 222 112.5 Q 220.8 107.7 223 106.5 L 220.5 105 L 220.5 107 L 219 104 Z " /><path fill="rgb(254,254,254)" stroke="rgb(254,254,254)" stroke-width="1" opacity="1" d="M 251.5 104 L 256 105 Q 257.6 107.1 257 112.5 L 253.5 115 L 253.5 112 Q 254.8 114.3 256 111.5 Q 257 107 254.5 106 L 253.5 108 L 251 107.5 L 252 105.5 L 249 106.5 L 251.5 104 Z " /><path fill="rgb(254,254,254)" stroke="rgb(254,254,254)" stroke-width="1" opacity="1" d="M 269 104 Q 271.7 102.9 271 105.5 L 270 108 L 273.5 107 L 273.5 108 L 272 108.5 L 272 110.5 L 272 113 L 270 113.5 L 270 120 L 268.5 120 L 264 118.5 L 269 118 L 269 104 Z " /><path fill="rgb(254,254,254)" stroke="rgb(254,254,254)" stroke-width="1" opacity="1" d="M 280.5 104 L 281 105.5 L 280 112 L 284 112 L 284 118.5 Q 282.8 121.3 277.5 120 L 275 119.5 L 276 118.5 L 273 115.5 L 273.5 114 L 276.5 118 L 280.5 119 L 283 118 Q 284.7 113.9 280.5 115 L 279 113.5 L 279 105.5 L 280.5 104 Z " /><path fill="rgb(254,254,254)" stroke="rgb(254,254,254)" stroke-width="1" opacity="1" d="M 207.5 105 L 209 105.5 L 208 108 Q 205.3 109.1 206 106.5 L 207.5 105 Z " /><path fill="rgb(254,254,254)" stroke="rgb(254,254,254)" stroke-width="1" opacity="1" d="M 209.5 107 L 211 107 L 211 112 L 206 109.5 L 209 109 L 209.5 111 L 210 108.5 L 209.5 107 Z " /><path fill="rgb(254,254,254)" stroke="rgb(254,254,254)" stroke-width="1" opacity="1" d="M 248 108 L 251 109.5 L 249.5 114 L 248 108 Z " /><path fill="rgb(254,254,254)" stroke="rgb(254,254,254)" stroke-width="1" opacity="1" d="M 155.5 112 L 156.5 116 L 159 115 L 158.5 117 L 155 115.5 L 155.5 112 Z " /><path fill="rgb(255,255,255)" stroke="rgb(255,255,255)" stroke-width="1" opacity="1" d="M 0 0 L 380 0 L 380 213 L 0 213 L 0 0 Z M 113 82 L 113 83 L 116 83 L 113 82 Z M 95 85 L 95 106 L 97 107 L 96 108 L 96 126 L 98 127 L 116 127 L 117 108 L 117 127 L 120 128 L 122 127 L 137 127 L 139 128 L 139 109 L 137 107 L 139 106 L 139 88 L 140 87 L 138 85 L 95 85 Z M 163 88 L 162 91 L 163 91 L 163 88 Z M 150 92 L 147 97 L 147 120 L 149 119 L 153 120 L 155 120 L 154 118 L 155 108 L 156 111 Q 158 110 157 114 L 159 118 Q 158 121 164 119 L 166 119 L 165 115 L 167 109 L 169 109 L 169 119 L 171 119 L 174 120 L 175 119 L 175 93 L 173 92 L 168 93 L 166 95 L 165 102 L 162 107 L 159 101 L 159 99 L 157 98 L 158 96 L 157 93 L 150 92 Z M 160 92 L 160 95 L 162 94 Q 163 91 160 92 Z M 176 92 L 176 93 L 178 93 L 176 92 Z M 181 92 L 177 95 Q 175 100 179 99 L 179 100 L 177 101 L 177 119 Q 178 121 180 119 L 183 120 L 189 120 L 188 119 L 187 117 Q 189 122 199 120 Q 201 119 199 118 L 203 120 L 204 119 L 207 120 L 206 119 L 207 110 L 209 111 Q 210 108 207 109 L 207 108 Q 209 109 208 107 Q 210 104 211 107 L 210 107 L 210 109 L 209 112 L 211 112 L 210 114 L 212 117 L 217 120 L 225 120 L 225 118 Q 228 119 227 117 L 230 115 L 229 119 Q 230 121 232 119 L 234 120 L 240 119 L 244 114 L 245 118 L 249 120 Q 258 121 262 116 L 261 115 L 263 114 L 264 119 L 269 120 L 270 120 L 270 113 L 272 113 L 273 110 L 270 108 L 272 105 Q 275 104 274 107 L 272 108 L 274 108 L 273 113 L 273 115 L 278 120 Q 283 121 284 119 L 284 112 Q 278 114 280 107 L 284 105 L 284 106 Q 281 105 282 108 L 284 107 L 288 108 L 288 103 L 285 104 L 284 101 L 287 100 L 287 99 L 282 100 Q 279 99 281 98 L 280 95 L 276 96 L 274 96 L 274 92 L 268 92 L 267 93 L 264 93 L 264 100 L 262 98 L 246 100 L 245 103 Q 242 102 243 105 L 242 105 L 242 101 Q 245 101 244 96 Q 238 94 240 99 L 232 100 L 230 107 L 227 103 L 229 102 L 225 101 L 224 98 L 215 101 L 211 99 L 193 99 L 187 102 L 185 105 L 182 100 L 183 96 L 184 94 L 181 92 Z M 277 93 L 277 94 L 280 94 L 277 93 Z M 156 112 L 155 116 L 156 116 L 156 112 Z M 244 119 L 244 120 L 247 120 L 244 119 Z " /><path fill="rgb(255,255,255)" stroke="rgb(255,255,255)" stroke-width="1" opacity="1" d="M 270 97 L 272.5 98 L 274 97.5 Q 275.2 102.1 270 100 L 270 97 Z " /><path fill="rgb(255,255,255)" stroke="rgb(255,255,255)" stroke-width="1" opacity="1" d="M 258.5 100 L 261 100.5 Q 258.9 103.8 258.5 100 Z " /><path fill="rgb(255,255,255)" stroke="rgb(255,255,255)" stroke-width="1" opacity="1" d="M 237.5 104 L 240 105 L 240.5 107 L 242.5 106 L 241.5 108 L 236 105.5 L 237.5 104 Z " /><path fill="rgb(255,255,255)" stroke="rgb(255,255,255)" stroke-width="1" opacity="1" d="M 195.5 105 L 200 106.5 L 191 108 Q 189.8 111 193.5 110 L 200 109 L 200 112 L 191.5 112 L 190 108.5 L 191 106 L 195.5 105 Z " /><path fill="rgb(255,255,255)" stroke="rgb(255,255,255)" stroke-width="1" opacity="1" d="M 218.5 105 L 220.5 105 L 223 106.5 Q 220.8 107.7 222 112.5 L 220.5 114 L 220 109.5 L 220.5 108 Q 216.1 109.5 217 106.5 L 218.5 105 Z " /><path fill="rgb(255,255,255)" stroke="rgb(255,255,255)" stroke-width="1" opacity="1" d="M 251.5 105 L 253.5 108 L 254 106.5 L 253.5 105 Q 257 106 256 111.5 L 252.5 115 L 251.5 114 Q 248.9 114.8 250 111.5 L 249 109.5 L 249 107.5 L 251.5 105 Z " /><path fill="rgb(255,255,255)" stroke="rgb(255,255,255)" stroke-width="1" opacity="1" d="M 230.5 108 L 232.5 112 L 234.5 111 L 237 112 Q 238.5 115.7 235.5 115 Q 234.1 112 229 112.5 L 231 111.5 L 230.5 108 Z " /><path fill="rgb(255,255,255)" stroke="rgb(255,255,255)" stroke-width="1" opacity="1" d="M 262.5 108 L 263 113 L 261 112.5 L 262.5 108 Z " /><path fill="rgb(255,255,255)" stroke="rgb(255,255,255)" stroke-width="1" opacity="1" d="M 184.5 114 Q 187.5 115.5 184.5 117 L 184.5 114 Z " /></svg>